<svg width="14" height="16" viewBox="0 0 14 16" fill="none" xmlns="http://www.w3.org/2000/svg">
<path d="M12.3106 2.78191C11.0892 1.01409 9.15332 0 6.99985 0C4.84638 0 2.91054 1.01409 1.68907 2.78191C0.473599 4.54078 0.192943 6.76756 0.936818 8.73491C1.13579 9.27216 1.45207 9.79412 1.87463 10.2832L6.57394 15.8031C6.68022 15.928 6.83594 16 6.99985 16C7.16376 16 7.31947 15.928 7.42576 15.8031L12.1238 10.2847C12.5482 9.79281 12.8641 9.27141 13.0614 8.73847C13.8068 6.76756 13.5261 4.54078 12.3106 2.78191ZM12.0138 8.34666C11.8616 8.75784 11.6132 9.16438 11.2758 9.55541C11.2749 9.55634 11.274 9.55728 11.2732 9.55841L6.99985 14.5777L2.72385 9.55525C2.38669 9.16456 2.13829 8.75806 1.98463 8.34294C1.36944 6.71591 1.60291 4.87478 2.60935 3.41819C3.61894 1.95694 5.21932 1.11888 6.99985 1.11888C8.78035 1.11888 10.3805 1.95691 11.3902 3.41819C12.3968 4.87478 12.6304 6.71591 12.0138 8.34666Z" fill="#AFAEB4"/>
<path d="M7.00006 3.31934C5.27269 3.31934 3.86719 4.72465 3.86719 6.45221C3.86719 8.17977 5.2725 9.58509 7.00006 9.58509C8.72763 9.58509 10.1329 8.17977 10.1329 6.45221C10.1329 4.72484 8.72744 3.31934 7.00006 3.31934ZM7.00006 8.46618C5.88956 8.46618 4.98606 7.56268 4.98606 6.45218C4.98606 5.34168 5.88956 4.43818 7.00006 4.43818C8.11056 4.43818 9.01406 5.34168 9.01406 6.45218C9.01406 7.56268 8.11056 8.46618 7.00006 8.46618Z" fill="#AFAEB4"/>
</svg>
